<?xml version="1.0" encoding="UTF-8"?>
<!DOCTYPE svg PUBLIC "-//W3C//DTD SVG 1.1//EN" "http://www.w3.org/Graphics/SVG/1.1/DTD/svg11.dtd">
<!-- Creator: CorelDRAW 2017 -->
<svg xmlns="http://www.w3.org/2000/svg" xml:space="preserve" width="2000px" height="900px" version="1.1" style="shape-rendering:geometricPrecision; text-rendering:geometricPrecision; image-rendering:optimizeQuality; fill-rule:evenodd; clip-rule:evenodd"
viewBox="0 0 2000 900"
 xmlns:xlink="http://www.w3.org/1999/xlink">
 <defs>
  <style type="text/css">
   <![CDATA[
    .fil0 {fill:black;fill-rule:nonzero}
   ]]>
  </style>
 </defs>
 <g id="Слой_x0020_1">
  <metadata id="CorelCorpID_0Corel-Layer"/>
  <path class="fil0" d="M770.5 299.77l-269.76 0 0 164.68c2.24,-2.12 7.44,-6.61 15.35,-13.45 7.91,-6.97 17.35,-15 27.98,-24.2 10.74,-9.21 22.07,-19.01 34.11,-29.28 12.05,-10.27 23.38,-19.6 34.24,-28.22 10.86,-8.5 20.31,-15.58 28.57,-21.01 8.15,-5.55 13.69,-8.38 16.76,-8.38 2.25,0 4.02,1.3 5.32,3.66 1.29,2.48 2.24,5.31 2.83,8.61 0.59,3.43 0.83,6.73 0.83,10.04 0,3.42 0,5.9 0,7.44l0 123.13c3.42,-0.71 7.08,-1.06 10.74,-1.18 3.66,-0.12 7.2,-0.24 10.74,-0.24 10.51,0 19.95,1.89 27.98,5.55 8.03,3.78 14.64,8.85 19.83,15.47 5.2,6.49 9.21,14.16 11.81,23.02 2.6,8.73 4.01,18.06 4.01,27.98 0,9.44 -1.06,17.59 -3.18,24.32 -2.01,6.84 -6.02,13.93 -12.04,21.36 -2.13,2.48 -4.96,5.79 -8.51,10.04 -3.54,4.13 -7.43,8.26 -11.57,12.51 -4.13,4.37 -8.14,8.27 -12.15,11.81 -3.9,3.54 -7.21,6.14 -10.04,7.79 -4.84,2.48 -10.15,4.37 -15.82,5.31 -5.78,1.06 -11.33,1.65 -16.64,1.65 -8.27,0 -15,-2.24 -20.19,-6.84 -5.2,-4.49 -9.33,-10.27 -12.28,-17.36 -3.07,-7.2 -5.08,-15.23 -6.26,-24.08 -1.18,-8.85 -1.89,-17.83 -2.12,-26.8 -0.24,-8.97 -0.12,-17.47 0.23,-25.38 0.36,-8.03 0.48,-14.64 0.48,-19.95 -12.4,3.18 -25.03,7.44 -37.66,12.39 -12.75,5.08 -24.09,12.05 -34.24,20.78 -6.73,5.79 -13.81,13.46 -21.49,23.02 -7.55,9.56 -15.22,20.19 -22.78,31.64 -7.67,11.57 -14.88,23.73 -21.84,36.48 -6.85,12.87 -12.99,25.5 -18.3,38.13 -5.31,12.52 -9.68,24.56 -12.99,36.13 -3.3,11.45 -4.95,21.6 -4.95,30.34l-46.4 46.39c0,-20.54 2.95,-41.08 8.97,-61.5 6.02,-20.55 14.05,-40.38 24.2,-59.39 10.16,-19 21.84,-37.07 35.18,-54.3 13.23,-17.12 27.16,-32.82 41.68,-46.87 17,-16.29 34.47,-32.11 52.18,-47.34 17.71,-15.23 37.19,-28.22 58.44,-39.08l0 -104.47 -134.82 114.15c-3.31,2.72 -6.5,5.55 -9.68,8.27 -3.31,2.83 -7.21,4.13 -11.81,4.13 -2.36,0 -4.13,-0.94 -5.43,-2.71 -1.18,-1.89 -2.24,-4.02 -2.83,-6.62 -0.71,-2.47 -1.18,-5.07 -1.3,-7.79 -0.12,-2.59 -0.12,-4.72 -0.12,-6.37l0 -203.41 -100.35 0 34.59 -34.59 415.09 0 -34.59 34.59zm-60.21 300.21c0,-7.55 -0.71,-14.87 -2.01,-21.72 -1.42,-6.97 -3.78,-13.1 -7.2,-18.53 -3.31,-5.43 -7.67,-9.8 -13.22,-13.34 -5.55,-3.43 -12.63,-5.67 -21.13,-6.5l0 33.88c0,6.62 0.35,12.64 1.06,17.83 0.71,5.19 2.24,9.56 4.6,13.1 2.48,3.55 5.9,6.38 10.39,8.27 4.49,2.01 10.51,2.95 17.83,2.95 1.18,0 2.36,0 3.42,0 1.18,0 2.36,-0.24 3.54,-0.71 0.71,-2.48 1.3,-5.07 1.89,-7.55 0.59,-2.6 0.83,-5.08 0.83,-7.68z"/>
  <path id="1" class="fil0" d="M924.09 299.77l-54.66 0 0 244.25c0,5.32 0.23,10.51 0.71,15.71 0.47,5.19 1.53,9.91 3.3,14.04 1.65,4.14 4.37,7.44 8.15,10.04 3.66,2.48 8.85,3.78 15.46,3.78 4.72,0 9.33,-0.59 13.93,-1.77 4.61,-1.18 8.98,-2.6 13.11,-4.49l-42.15 42.26c-1.89,1.77 -4.84,3.07 -8.85,3.78 -4.02,0.71 -7.32,1.06 -9.92,1.06 -9.44,0 -16.76,-2 -21.96,-5.9 -5.19,-3.89 -8.97,-8.97 -11.33,-15.23 -2.48,-6.25 -4.01,-13.1 -4.49,-20.54 -0.59,-7.56 -0.94,-14.87 -0.94,-21.96l0 -265.03 -93.38 0 34.59 -34.59 58.79 0 0 -14.52c0,-3.66 0,-8.98 -0.12,-15.82 -0.12,-6.97 -0.47,-14.41 -0.94,-22.32 -0.36,-8.02 -1.3,-16.17 -2.72,-24.43 -1.42,-8.27 -3.19,-15.82 -5.55,-22.43 -2.24,-6.73 -5.31,-12.16 -9.21,-16.41 -3.77,-4.37 -8.38,-6.5 -13.93,-6.5 -9.44,0 -18.06,2.48 -25.73,7.32 -7.8,4.84 -14.64,10.75 -20.66,17.59 -12.4,15.23 -24.2,31.17 -35.3,47.93 -10.98,16.77 -22.08,33.3 -33.18,49.59l-11.09 -8.27c3.78,-9.44 8.26,-20.07 13.69,-31.75 5.43,-11.81 11.57,-23.85 18.3,-36.25 6.85,-12.27 14.4,-24.32 22.55,-36.12 8.15,-11.69 17,-22.2 26.44,-31.29 9.45,-9.09 19.6,-16.41 30.23,-22.07 10.74,-5.67 22.07,-8.5 34.11,-8.5 14.05,0 25.03,3.66 33.06,11.09 7.91,7.32 13.93,16.53 17.94,27.51 4.02,10.86 6.62,22.67 7.68,35.18 0.94,12.63 1.53,23.97 1.53,34.12 0,11.1 -0.35,22.08 -1.06,33.17 -0.71,11.1 -1.06,22.2 -1.06,33.18l89.25 0 -34.59 34.59z"/>
  <path id="2" class="fil0" d="M1288.64 299.77l-54.66 0 0 246.26c0,5.08 0.24,10.15 0.71,15.11 0.47,4.96 1.65,9.33 3.43,13.34 1.88,3.9 4.6,7.09 8.26,9.45 3.78,2.48 8.85,3.66 15.23,3.66 4.6,0 9.32,-0.59 13.93,-1.77 4.6,-1.18 8.97,-2.6 13.1,-4.49l-42.26 42.26c-2.01,2.01 -4.96,3.31 -8.74,3.9 -3.78,0.59 -7.08,0.94 -9.91,0.94 -9.45,0 -16.77,-2 -21.96,-5.9 -5.2,-3.89 -8.97,-8.97 -11.34,-15.23 -2.47,-6.25 -4.01,-13.1 -4.48,-20.54 -0.59,-7.56 -0.95,-14.87 -0.95,-21.96l0 -226.9 -130.68 126.55c-8.74,8.27 -18.42,15 -28.69,20.07 -10.39,5.08 -21.84,7.56 -34.24,7.56 -7.43,0 -15.34,-1.53 -23.73,-4.6 -8.38,-3.19 -15.34,-7.09 -20.54,-11.93l37.31 -40.84c3.89,3.42 8.26,6.25 13.1,8.5 4.84,2.12 9.92,3.3 15.23,3.3 6.73,0 13.1,-1.18 19.36,-3.54 6.26,-2.24 11.81,-5.79 16.65,-10.39l136.23 -132.81 -285.69 0 34.59 -34.59 385.33 0 -34.59 34.59zm-179.8 377.78c-10.15,0.23 -19.12,-1.19 -26.68,-4.02 -7.67,-2.83 -13.93,-7.08 -19,-12.63 -5.08,-5.55 -8.86,-12.28 -11.45,-20.19 -2.48,-8.03 -3.78,-16.88 -3.78,-26.8 0,-17.59 2.83,-33.88 8.5,-48.87 5.55,-14.88 12.87,-29.16 21.96,-42.62 8.97,-13.58 19,-26.33 30.22,-38.49 11.21,-12.04 22.31,-23.84 33.41,-35.41l7.55 15.23c-6.61,6.49 -13.34,14.28 -19.83,23.49 -6.61,9.21 -12.51,19.01 -17.71,29.4 -5.19,10.38 -9.32,21.01 -12.39,31.87 -3.19,10.86 -4.73,20.9 -4.73,30.1 0,19.37 5.43,33.18 16.3,41.44 10.86,8.38 25.5,12.28 43.91,11.81l-46.28 45.69z"/>
  <path id="3" class="fil0" d="M1608.22 299.77l-126.56 0c7.8,1.18 15.94,3.3 24.21,6.25 8.26,3.07 15.7,7.09 22.31,12.16 6.49,5.08 11.92,11.1 16.29,18.19 4.25,6.96 6.37,15.11 6.37,24.31 0,12.28 -3.3,23.62 -9.91,34.12 -6.49,10.39 -14.76,20.54 -24.56,30.22 -9.8,9.69 -20.42,19.25 -31.99,28.57 -11.45,9.33 -22.2,18.77 -31.99,28.34 -9.8,9.56 -17.95,19.48 -24.56,29.87 -6.49,10.38 -9.8,21.6 -9.8,33.52 0,6.5 1.89,12.99 5.9,19.6 3.9,6.61 8.86,12.51 14.76,17.95 6.02,5.43 12.52,9.91 19.6,13.34 7.08,3.42 13.69,5.19 19.83,5.19 2.36,0 4.84,-0.71 7.44,-2.01 2.72,-1.41 5.43,-2.95 8.15,-4.72 2.83,-1.77 5.54,-3.42 8.14,-5.19 2.72,-1.77 5.2,-3.07 7.44,-4.02 1.89,-4.6 3.19,-9.09 3.78,-13.57 0.71,-4.49 1.06,-9.21 1.06,-14.05 -2.72,-0.24 -6.26,-0.95 -10.39,-2.25 -4.13,-1.29 -8.15,-2.95 -12.04,-5.07 -3.9,-2.01 -7.32,-4.49 -10.04,-7.44 -2.83,-2.83 -4.13,-6.02 -4.13,-9.44 0,-2.6 0,-4.96 0.12,-7.32 0.12,-2.25 0.71,-4.49 1.89,-6.5 0.94,-2.12 3.42,-5.31 7.32,-9.68 3.89,-4.37 8.26,-8.85 13.1,-13.22 4.84,-4.37 9.56,-8.15 14.17,-11.57 4.6,-3.31 8.14,-4.96 10.39,-4.96 4.6,0 8.73,1.89 12.51,5.67 3.66,3.78 6.73,8.38 9.09,13.69 2.48,5.32 4.25,10.75 5.55,16.41 1.3,5.67 1.89,10.27 1.89,14.05 0,17.47 -2.72,32.35 -8.15,44.75 -5.43,12.27 -12.98,22.43 -22.78,30.45 -9.8,7.91 -21.49,13.7 -35.06,17.48 -13.7,3.66 -28.57,5.54 -44.63,5.54 -8.85,0 -18.18,-1.53 -28.1,-4.36 -9.91,-2.84 -19,-7.09 -27.27,-12.64 -8.26,-5.54 -15.23,-12.27 -20.77,-20.18 -5.55,-8.03 -8.27,-17 -8.27,-27.16 0,-12.75 3.31,-24.2 10.04,-34.47 6.61,-10.27 14.99,-19.95 24.91,-29.16 9.91,-9.21 20.77,-18.3 32.46,-27.03 11.81,-8.74 22.67,-18.07 32.58,-27.86 9.92,-9.8 18.19,-20.31 24.8,-31.41 6.73,-11.21 10.03,-23.96 10.03,-38.25 0,-6.25 -1.77,-11.92 -5.31,-17.11 -3.54,-5.2 -8.03,-9.68 -13.34,-13.46 -5.31,-3.9 -11.1,-6.85 -17.47,-8.97 -6.26,-2.25 -12.28,-3.31 -17.83,-3.31 -5.31,0 -10.86,1.18 -16.88,3.78 -6.02,2.48 -11.69,4.48 -17,5.9 -2.01,4.13 -3.43,8.5 -3.9,13.22 -0.59,4.84 -0.94,9.56 -0.94,14.4 3.89,0.48 8.14,1.3 12.51,2.48 4.37,1.07 8.38,2.84 11.92,5.2 3.55,2.24 6.5,5.07 8.86,8.62 2.24,3.42 3.42,7.43 3.42,12.04 0,3.3 -1.89,7.67 -5.55,13.22 -3.66,5.55 -8.02,10.86 -13.1,16.17 -5.08,5.32 -10.27,9.92 -15.58,13.93 -5.32,3.9 -9.57,5.79 -12.87,5.79 -4.61,0 -8.74,-1.77 -12.4,-5.31 -3.66,-3.55 -6.73,-7.91 -9.21,-12.87 -2.36,-4.96 -4.25,-10.04 -5.54,-15.35 -1.18,-5.31 -1.89,-9.8 -1.89,-13.46 0,-13.34 2.71,-25.85 8.14,-37.54 5.43,-11.69 12.63,-21.96 21.61,-30.93 8.97,-8.97 19.36,-16.29 31.16,-21.96 11.69,-5.66 23.97,-9.21 36.6,-10.62l-190.9 0 34.6 -34.59 340.35 0 -34.59 34.59z"/>
  <path id="4" class="fil0" d="M1748 299.77l-54.66 0 0 244.25c0,5.32 0.23,10.51 0.71,15.71 0.47,5.19 1.53,9.91 3.3,14.04 1.65,4.14 4.37,7.44 8.15,10.04 3.66,2.48 8.85,3.78 15.46,3.78 4.72,0 9.33,-0.59 13.93,-1.77 4.61,-1.18 8.97,-2.6 13.11,-4.49l-42.15 42.26c-1.89,1.77 -4.84,3.07 -8.85,3.78 -4.02,0.71 -7.32,1.06 -9.92,1.06 -9.44,0 -16.76,-2 -21.96,-5.9 -5.19,-3.89 -8.97,-8.97 -11.33,-15.23 -2.48,-6.25 -4.02,-13.1 -4.49,-20.54 -0.59,-7.56 -0.94,-14.87 -0.94,-21.96l0 -265.03 -93.38 0 34.59 -34.59 58.79 0 0 -14.52c0,-3.66 0,-8.98 -0.12,-15.82 -0.12,-6.97 -0.47,-14.41 -0.94,-22.32 -0.36,-8.02 -1.3,-16.17 -2.72,-24.43 -1.42,-8.27 -3.19,-15.82 -5.55,-22.43 -2.24,-6.73 -5.31,-12.16 -9.21,-16.41 -3.78,-4.37 -8.38,-6.5 -13.93,-6.5 -9.44,0 -18.06,2.48 -25.73,7.32 -7.8,4.84 -14.64,10.75 -20.66,17.59 -12.4,15.23 -24.2,31.17 -35.3,47.93 -10.98,16.77 -22.08,33.3 -33.18,49.59l-11.09 -8.27c3.77,-9.44 8.26,-20.07 13.69,-31.75 5.43,-11.81 11.57,-23.85 18.3,-36.25 6.85,-12.27 14.4,-24.32 22.55,-36.12 8.14,-11.69 17,-22.2 26.44,-31.29 9.45,-9.09 19.6,-16.41 30.23,-22.07 10.74,-5.67 22.07,-8.5 34.11,-8.5 14.05,0 25.03,3.66 33.06,11.09 7.91,7.32 13.93,16.53 17.94,27.51 4.02,10.86 6.61,22.67 7.68,35.18 0.94,12.63 1.53,23.97 1.53,34.12 0,11.1 -0.35,22.08 -1.06,33.17 -0.71,11.1 -1.06,22.2 -1.06,33.18l89.25 0 -34.59 34.59z"/>
 </g>
</svg>
